<svg width="64" height="42" viewBox="0 0 64 42" fill="none" xmlns="http://www.w3.org/2000/svg" class="w-[12.5rem]"><path d="M44.6041 42.0099C39.9323 42.0133 35.4312 40.2582 32 37.095C33.8907 35.3654 35.4003 33.2625 36.4329 30.9198C37.4655 28.5771 37.9985 26.0458 37.998 23.4866C37.998 25.2343 38.6939 26.9103 39.9326 28.1461C41.1713 29.3818 42.8513 30.0761 44.6031 30.0761C46.3549 30.0761 48.035 29.3818 49.2737 28.1461C50.5124 26.9103 51.2082 25.2343 51.2082 23.4866V5.98473C51.2082 4.39748 51.8403 2.87524 52.9653 1.75289C54.0903 0.630533 55.6162 0 57.2072 0C58.7982 0 60.3241 0.630533 61.4491 1.75289C62.5742 2.87524 63.2062 4.39748 63.2062 5.98473V23.4866C63.1962 28.4022 61.2321 33.1132 57.7447 36.5858C54.2573 40.0584 49.5315 42.0091 44.6041 42.0099Z" fill="#F7AEF8"></path><path d="M32 17.5138C31.2129 17.513 30.4335 17.6669 29.7061 17.9666C28.9787 18.2664 28.3176 18.7061 27.7605 19.2607C27.2035 19.8154 26.7613 20.474 26.4594 21.1991C26.1575 21.9242 26.0018 22.7015 26.001 23.4866V5.98473C26.0213 4.41095 26.6622 2.90848 27.7849 1.80273C28.9076 0.69698 30.4218 0.0769653 31.9995 0.0769653C33.5771 0.0769653 35.0913 0.69698 36.214 1.80273C37.3368 2.90848 37.9777 4.41095 37.998 5.98473V23.4866C37.9964 21.9011 37.3636 20.3812 36.2388 19.2611C35.1139 18.141 33.5892 17.5125 32 17.5138Z" fill="#4ECDC4"></path><path d="M32 37.095C30.109 35.3656 28.5992 33.2627 27.5664 30.92C26.5337 28.5773 26.0006 26.0459 26.001 23.4866C26.0213 21.9128 26.6622 20.4104 27.7849 19.3046C28.9076 18.1989 30.4218 17.5789 31.9995 17.5789C33.5771 17.5789 35.0913 18.1989 36.214 19.3046C37.3368 20.4104 37.9777 21.9128 37.998 23.4866C37.9985 26.0458 37.4656 28.5772 36.433 30.9199C35.4004 33.2626 33.8908 35.3655 32 37.095Z" fill="#97FAF8"></path><path d="M6.79292 17.5138C6.00591 17.513 5.22645 17.6669 4.49904 17.9666C3.77164 18.2664 3.11052 18.7061 2.55347 19.2607C1.99641 19.8154 1.55432 20.474 1.25242 21.1991C0.950518 21.9242 0.794727 22.7015 0.793945 23.4866V5.98473C0.814233 4.41095 1.45514 2.90848 2.57787 1.80273C3.7006 0.69698 5.21476 0.0769653 6.79242 0.0769653C8.37009 0.0769653 9.88426 0.69698 11.007 1.80273C12.1297 2.90848 12.7706 4.41095 12.7909 5.98473V23.4866C12.7903 22.7015 12.6346 21.9242 12.3328 21.1992C12.031 20.4741 11.589 19.8154 11.032 19.2608C10.475 18.7061 9.81401 18.2664 9.08666 17.9666C8.35931 17.6669 7.57989 17.513 6.79292 17.5138Z" fill="#97FAF8"></path><path d="M26.0012 23.4876C26.0012 25.2352 25.3053 26.9113 24.0666 28.147C22.8279 29.3828 21.1478 30.077 19.396 30.077C17.6443 30.077 15.9642 29.3828 14.7255 28.147C13.4868 26.9113 12.7909 25.2352 12.7909 23.4876C12.7706 21.9138 12.1297 20.4113 11.007 19.3056C9.88426 18.1998 8.37009 17.5798 6.79242 17.5798C5.21476 17.5798 3.7006 18.1998 2.57787 19.3056C1.45514 20.4113 0.814233 21.9138 0.793945 23.4876C0.800212 27.0906 1.85787 30.6138 3.83779 33.6271C5.81771 36.6403 8.63423 39.0133 11.9435 40.4563C15.2527 41.8993 18.9115 42.3499 22.4732 41.753C26.0348 41.1561 29.3452 39.5376 32.0001 37.095C30.1093 35.3656 28.5997 33.2629 27.5669 30.9204C26.5342 28.5779 26.001 26.0467 26.0012 23.4876Z" fill="#1CC5FF"></path></svg>